# xmcd
#
# Track frame offsets: 
#        150
#        9291
#        23268
#        49113
#        69815
#        88191
#        128096
#        156869
#
# Disc length: 2398 seconds
#
# Revision: 0
# Processed by: cddbd v1.5.1PL0 Copyright (c) Steve Scherf et al.
# Submitted via: ExactAudioCopy v0.90b4
#
DISCID=50095c08
DTITLE=Chef Chris and his Nairobi Trio - Ruff Cuts
DYEAR=2003
DGENRE=Blues
TTITLE0=I Ain't Got You
TTITLE1=Folsom Prison Blues
TTITLE2=Average Girl
TTITLE3=Crawfish Gumbo
TTITLE4=Early In The Morning
TTITLE5=You're Going To Jail and Your Car Is, Too
TTITLE6=Stolen Car Blues
TTITLE7=Simpathy For The Devil
EXTD=
EXTT0=
EXTT1=
EXTT2=
EXTT3=
EXTT4=
EXTT5=
EXTT6=
EXTT7=
PLAYORDER=
